<?xml version="1.0" standalone="no"?>
<!DOCTYPE svg PUBLIC "-//W3C//DTD SVG 20010904//EN"
 "http://www.w3.org/TR/2001/REC-SVG-20010904/DTD/svg10.dtd">
<svg version="1.0" xmlns="http://www.w3.org/2000/svg"
 width="320.000000pt" height="320.000000pt" viewBox="0 0 320.000000 320.000000"
 preserveAspectRatio="xMidYMid meet">
<metadata>
Created by potrace 1.14, written by Peter Selinger 2001-2017
</metadata>
<g transform="translate(0.000000,320.000000) scale(0.100000,-0.100000)"
fill="#000000" stroke="none">
<path d="M1575 2410 l-40 -7 43 -2 c23 0 42 4 42 9 0 6 -1 9 -2 9 -2 -1 -21
-5 -43 -9z"/>
<path d="M1648 2403 c12 -2 32 -2 45 0 12 2 2 4 -23 4 -25 0 -35 -2 -22 -4z"/>
<path d="M1720 2401 c0 -5 8 -8 18 -6 9 1 25 -2 35 -7 11 -5 17 -5 17 2 0 5
-6 10 -12 11 -7 0 -23 2 -35 5 -13 2 -23 0 -23 -5z"/>
<path d="M1380 2380 c-12 -8 -10 -9 7 -7 12 2 26 6 29 10 11 11 -19 8 -36 -3z"/>
<path d="M1800 2381 c0 -4 30 -13 68 -20 37 -8 71 -16 77 -19 5 -4 28 -8 50
-9 51 -4 68 -10 60 -23 -4 -6 -11 -8 -16 -5 -5 4 -9 3 -9 -2 0 -4 23 -20 50
-34 27 -15 47 -23 44 -18 -3 5 -22 18 -42 28 l-37 19 25 11 c14 5 22 11 18 12
-16 4 -23 6 -38 12 -8 3 -33 8 -55 11 -22 4 -75 14 -117 25 -43 10 -78 15 -78
12z"/>
<path d="M1455 2356 c-27 -6 -112 -11 -188 -11 -76 0 -140 -2 -143 -6 -2 -3
-15 -4 -29 -1 -15 2 -25 0 -25 -7 0 -13 1 -13 122 -15 53 -1 100 -4 104 -9 4
-4 0 -7 -8 -7 -20 0 -155 -77 -165 -94 -10 -15 -64 -53 -78 -55 -5 -1 -10 -5
-10 -11 0 -10 -44 -54 -57 -58 -32 -10 -46 -18 -65 -40 -13 -13 -20 -29 -17
-33 7 -12 10 -11 -143 -13 -73 -1 -135 -5 -139 -9 -8 -8 -3 -8 134 -8 84 1
102 -2 102 -14 0 -8 5 -15 11 -15 5 0 7 -4 4 -10 -3 -5 -1 -10 4 -10 18 0 12
-35 -9 -58 -20 -21 -29 -22 -168 -22 -141 0 -148 -1 -148 -20 0 -11 3 -21 6
-21 3 -1 61 -3 130 -4 172 -4 171 -4 135 -20 -16 -8 -40 -14 -52 -15 -13 0
-23 -4 -23 -9 0 -5 -10 -7 -22 -4 -17 3 -19 2 -9 -5 11 -8 10 -11 -5 -14 -10
-3 -27 3 -38 11 -13 12 -45 17 -117 19 -98 4 -99 4 -100 -20 0 -12 -1 -86 -2
-163 l-1 -140 47 -3 47 -3 0 55 0 56 39 0 c57 0 88 15 111 52 14 23 19 44 16
70 -5 36 6 59 18 39 4 -5 0 -12 -6 -14 -8 -3 -6 -6 5 -6 10 -1 18 -9 18 -21 1
-11 2 -26 3 -32 1 -7 -1 -18 -6 -24 -4 -6 -4 -24 0 -40 16 -57 8 -64 -71 -64
-87 0 -119 -15 -39 -18 31 -1 58 -6 60 -12 2 -5 10 -10 18 -10 9 0 12 5 9 10
-3 6 0 10 8 10 21 0 19 -50 -2 -50 -11 -1 -8 -5 9 -14 14 -8 28 -12 31 -10 4
2 14 -7 22 -20 15 -22 15 -23 -9 -23 -13 0 -24 4 -24 9 0 5 5 6 10 3 6 -3 10
-1 10 4 0 7 -36 11 -100 11 -55 0 -100 -4 -100 -9 0 -4 26 -7 58 -6 51 1 128
-11 92 -15 -59 -6 -78 -20 -28 -20 22 0 41 -7 53 -20 18 -20 17 -20 -34 -20
-34 0 -50 -4 -46 -11 4 -6 10 -8 13 -5 3 4 15 0 26 -7 30 -18 82 -15 78 5 -2
11 4 14 23 10 14 -2 25 -8 25 -12 0 -21 -14 -40 -29 -40 -29 0 -33 -13 -9 -32
21 -16 21 -18 4 -18 -25 0 -12 -13 17 -16 12 -2 16 0 9 3 -10 4 -10 8 0 21 7
9 8 13 3 10 -6 -4 -19 0 -30 8 -10 8 -14 14 -9 14 6 0 14 -3 18 -7 8 -9 14
-10 51 -12 14 0 24 -6 22 -13 -1 -7 5 -12 13 -13 8 0 15 -7 15 -15 0 -10 -8
-14 -23 -12 -13 2 -25 -3 -28 -12 -5 -12 -21 -16 -66 -16 -48 0 -59 -3 -55
-14 4 -10 -1 -13 -18 -12 -13 2 -29 -1 -37 -6 -10 -7 -8 -8 5 -4 9 3 17 1 17
-4 0 -6 -5 -10 -11 -10 -5 0 -7 -5 -3 -11 5 -8 10 -6 16 5 5 9 17 16 26 16 15
0 15 -2 2 -11 -12 -9 -11 -10 8 -6 12 3 22 2 22 -2 0 -4 23 -6 51 -6 28 0 53
-4 56 -9 4 -5 1 -6 -7 -1 -9 6 -11 4 -6 -4 6 -9 12 -9 25 3 16 15 19 14 40 -8
13 -14 30 -22 37 -19 8 3 14 2 13 -3 -4 -16 24 -64 38 -64 7 0 30 -17 51 -38
44 -46 105 -85 118 -74 4 4 2 -1 -6 -11 -12 -16 -12 -18 1 -16 15 4 81 -20 89
-32 5 -8 148 -58 183 -65 176 -33 348 -14 508 58 38 17 69 35 69 40 0 5 5 6
12 2 7 -5 9 -2 5 9 -4 12 -2 14 10 10 9 -4 14 -2 10 3 -3 6 118 9 321 9 329
-1 362 1 362 15 0 5 -139 7 -310 6 -170 0 -317 1 -326 4 -9 4 4 13 38 25 52
19 52 19 23 27 -17 4 -38 5 -48 2 -24 -7 -59 -42 -53 -52 2 -4 -9 -7 -25 -7
-39 0 -37 11 6 26 19 7 35 18 35 24 0 6 14 19 30 28 17 10 30 25 30 33 0 8 5
15 10 15 6 1 16 2 23 3 6 1 18 -5 25 -14 10 -12 12 -8 9 25 -3 36 -1 40 19 40
20 0 21 -2 8 -16 -8 -8 -14 -22 -14 -30 1 -10 5 -8 15 5 8 11 15 16 15 11 0
-4 10 0 22 11 21 19 21 19 15 -1 -6 -17 -5 -18 5 -5 11 13 32 18 41 10 6 -6
209 -4 213 2 3 5 -36 8 -86 8 -50 0 -89 4 -86 8 3 5 -13 8 -35 7 -42 -2 -47 3
-26 24 10 11 9 13 -5 8 -23 -8 -24 18 -3 40 12 11 19 12 29 4 7 -6 15 -8 19
-5 9 9 -4 35 -14 28 -5 -3 -9 -3 -9 1 0 17 70 26 193 25 109 0 142 3 160 15
20 14 9 15 -128 16 -83 0 -144 3 -137 6 20 8 14 22 -7 16 -11 -3 -30 2 -43 11
l-22 16 22 0 c13 0 34 11 47 24 13 13 27 21 31 17 4 -3 4 2 1 12 -4 11 -1 17
9 17 22 0 42 22 46 51 1 13 13 28 26 34 19 8 22 17 22 66 0 62 2 64 68 68 l42
3 0 -67 0 -66 47 3 46 3 0 150 c-1 83 -2 156 -2 163 -1 8 -17 12 -46 12 l-45
0 0 -59 0 -59 -51 -4 c-28 -1 -53 -1 -55 1 -2 2 -4 32 -4 67 0 61 1 62 25 59
35 -3 41 12 6 17 -35 5 -53 -1 -45 -14 4 -6 -4 -8 -17 -6 -13 1 -24 9 -24 16
0 8 -7 19 -15 25 -9 7 -25 28 -38 47 -25 41 -29 37 -6 -9 8 -17 24 -36 35 -41
21 -12 21 -32 0 -41 -12 -4 -14 -29 -14 -118 1 -107 0 -111 -17 -94 -10 10
-16 21 -13 26 2 4 -4 7 -14 8 -10 0 -13 3 -6 5 7 3 11 11 9 17 -1 7 -1 9 1 5
7 -12 33 -9 33 3 0 6 -5 20 -11 31 -8 16 -8 22 2 29 13 7 -3 17 -53 33 -15 4
-15 8 -1 48 8 24 22 51 30 61 10 11 12 17 5 18 -7 1 -18 2 -24 3 -7 0 -13 10
-13 21 0 11 -11 26 -23 33 -22 13 -22 15 -8 31 19 21 19 21 158 22 92 1 110 4
125 21 15 17 15 21 3 29 -11 7 -6 8 17 4 18 -4 40 -2 50 4 14 8 6 11 -37 11
-30 0 -137 1 -236 2 -173 2 -181 3 -171 20 14 21 21 22 48 8 10 -6 19 -8 19
-6 0 3 -14 13 -30 21 -17 9 -28 20 -25 25 3 5 -4 15 -15 23 -11 7 -17 18 -12
23 4 4 -1 2 -11 -5 -15 -12 -20 -11 -32 5 -8 10 -15 21 -15 24 0 7 -61 44 -76
46 -6 1 -34 18 -63 37 -28 20 -68 41 -88 48 -21 6 -56 21 -78 33 -42 22 -46
23 -83 25 -13 0 -21 4 -19 9 8 12 -274 11 -328 -2z m309 -210 c60 -18 159 -63
221 -101 l40 -25 -80 -1 c-44 -1 -70 -4 -57 -6 42 -8 22 -23 -25 -18 -42 4
-45 3 -23 -7 21 -9 22 -12 8 -15 -22 -5 -24 -20 -3 -20 14 0 19 11 16 31 -1 5
5 6 14 2 9 -3 24 -6 33 -6 13 0 13 -2 -2 -13 -18 -13 -18 -14 0 -14 11 0 22 5
26 11 6 8 8 8 8 0 0 -8 25 -12 75 -11 80 0 101 -8 85 -33 -8 -12 -39 -15 -162
-17 -185 -2 -178 -1 -178 -12 0 -9 336 -8 346 2 8 8 36 -3 56 -23 12 -13 14
-20 5 -29 -9 -9 -9 -14 1 -20 7 -4 14 -14 15 -22 2 -8 6 -19 10 -25 4 -7 1
-29 -7 -50 -14 -41 -9 -39 -106 -43 -18 -1 -21 -4 -11 -10 7 -5 28 -7 47 -5
18 1 36 -1 39 -5 9 -16 -16 -68 -33 -68 -49 0 -63 -4 -59 -15 2 -7 12 -14 23
-14 10 -1 24 -2 31 -3 7 -1 5 -17 -8 -51 -10 -28 -19 -55 -19 -60 0 -6 20 -10
45 -10 39 0 47 4 54 24 5 13 16 26 23 28 10 4 13 -5 11 -38 -2 -39 0 -44 19
-44 20 0 19 -3 -12 -35 -18 -19 -37 -32 -42 -29 -4 3 -8 -2 -8 -11 0 -9 4 -14
9 -10 5 3 12 1 15 -4 4 -5 1 -13 -5 -16 -5 -4 -8 -13 -5 -20 4 -12 -53 -46
-102 -60 -37 -11 -15 -23 50 -28 29 -2 50 -17 27 -18 -64 -3 -101 -28 -79 -53
11 -14 9 -16 -14 -16 -20 0 -26 -4 -24 -17 2 -13 -5 -19 -22 -21 -14 -2 -36
-14 -50 -26 -51 -45 -176 -101 -255 -113 -74 -12 -211 -6 -271 13 -76 23 -69
21 -105 23 -16 0 -28 5 -25 9 3 5 -14 19 -37 32 -42 24 -54 32 -83 59 -14 13
-13 16 8 28 22 13 22 14 -14 10 -26 -2 -38 1 -38 10 0 7 7 10 15 7 8 -4 15 -1
15 6 0 6 -11 10 -25 8 -17 -2 -33 7 -58 35 -19 20 -31 37 -26 37 20 0 7 18
-16 24 -14 4 -25 10 -25 15 0 10 6 10 123 11 l57 0 -6 -27 c-3 -16 -2 -23 3
-17 16 20 42 24 52 6 17 -29 11 1 -8 41 -15 32 -20 36 -30 24 -8 -11 -21 -13
-44 -8 -18 4 -43 5 -57 1 -34 -8 -38 -7 -88 15 l-42 19 27 11 28 11 -33 15
c-33 14 -42 28 -19 30 73 4 97 3 97 -3 0 -5 -11 -8 -25 -8 -14 0 -25 -4 -25
-9 0 -5 8 -8 17 -7 10 2 32 0 50 -5 25 -5 33 -3 33 6 0 8 -8 12 -20 10 -11 -2
-20 0 -20 6 0 5 9 9 20 9 29 0 35 -3 34 -17 -2 -15 63 -18 85 -4 11 7 10 11
-6 20 -11 5 -23 7 -27 4 -3 -3 -6 -1 -6 5 0 9 -34 12 -112 12 -67 0 -107 4
-99 9 10 6 10 10 1 16 -9 6 -9 9 1 16 11 6 11 11 1 21 -19 19 -14 28 14 28 23
0 26 -3 22 -25 -5 -24 -3 -25 42 -25 43 0 49 3 54 25 6 23 11 25 66 25 55 0
61 -2 70 -25 8 -22 16 -25 56 -25 44 0 46 1 40 24 -4 17 0 26 17 35 l22 12
-23 -5 c-27 -5 -37 12 -77 129 -14 44 -32 93 -38 109 l-11 29 -75 -7 c-96 -9
-123 -8 -135 4 -24 24 15 34 142 35 124 0 127 1 130 23 3 22 2 22 -113 22
-133 0 -150 10 -96 57 17 15 31 33 31 40 0 19 39 35 76 31 24 -3 34 0 34 9 0
9 -9 12 -25 9 -17 -3 -25 0 -25 10 0 8 6 14 14 14 8 0 16 6 19 14 15 39 188
112 262 111 28 -1 55 4 61 10 16 15 143 10 208 -9z m-774 -81 c0 -3 -17 -20
-37 -39 -25 -23 -40 -30 -45 -23 -8 13 18 46 47 58 24 9 35 11 35 4z m-74 -96
c3 -6 -1 -18 -10 -27 -14 -15 -17 -15 -30 3 -13 18 -13 21 2 27 25 10 30 9 38
-3z m-316 -284 c6 -3 10 -14 10 -24 0 -41 -63 -52 -68 -13 -7 46 18 61 58 37z
m515 -12 c-4 -10 -12 -30 -17 -45 -5 -16 -13 -28 -16 -29 -4 -1 -26 -2 -50 -4
-36 -2 -42 1 -36 14 3 9 8 25 11 36 3 11 6 26 9 33 2 7 22 12 55 12 45 0 50
-2 44 -17z m1305 7 c0 -5 -7 -10 -16 -10 -8 0 -12 5 -9 10 3 6 10 10 16 10 5
0 9 -4 9 -10z m-1187 -97 c9 -14 6 -15 -35 -18 -25 -2 -27 1 -21 24 3 14 10
37 16 51 l10 25 11 -35 c6 -19 15 -41 19 -47z m-169 -31 c-1 -7 -2 -19 -2 -27
-2 -11 -14 -15 -43 -15 -33 0 -40 3 -35 15 3 10 -1 19 -12 23 -12 5 -6 9 23
12 53 8 70 5 69 -8z m1393 -59 c0 -47 3 -53 30 -53 21 0 24 -3 15 -12 -7 -7
-12 -19 -12 -28 0 -15 -37 -40 -59 -40 -12 0 -4 114 8 118 9 3 9 8 0 18 -9 11
-8 14 3 14 9 0 15 -8 15 -17z m-1664 -142 c9 -1 17 -8 17 -16 0 -16 -33 -17
-57 -2 -19 12 -16 26 5 22 9 -2 25 -4 35 -4z m-19 -46 c-4 -8 -16 -15 -28 -15
-20 0 -20 1 4 14 14 8 26 14 27 15 1 1 0 -6 -3 -14z m96 -36 c0 -5 -4 -7 -10
-4 -5 3 -10 1 -10 -4 0 -6 -5 -11 -11 -11 -8 0 -8 5 1 15 14 17 30 20 30 4z
m380 -19 c0 -5 -4 -10 -10 -10 -5 0 -10 5 -10 10 0 6 5 10 10 10 6 0 10 -4 10
-10z m-350 -20 c8 -5 11 -10 5 -10 -5 0 -17 5 -25 10 -8 5 -10 10 -5 10 6 0
17 -5 25 -10z m1429 -33 c-2 -1 -12 -9 -21 -16 -15 -12 -18 -11 -18 3 0 10 8
16 22 16 12 0 19 -1 17 -3z m-71 -96 c-14 -23 -38 -36 -38 -20 0 6 -5 7 -11 3
-7 -4 -10 -1 -7 7 3 8 11 14 19 14 8 0 20 6 28 13 19 18 25 8 9 -17z m-61 -48
c7 -19 -16 -25 -38 -10 -14 11 -17 16 -7 19 20 7 41 3 45 -9z m-1247 -3 c0 -5
-2 -10 -4 -10 -3 0 -8 5 -11 10 -3 6 -1 10 4 10 6 0 11 -4 11 -10z m79 -41
c13 -11 21 -22 19 -25 -3 -3 -19 6 -34 20 -34 30 -20 35 15 5z m63 -53 c10 -7
15 -16 11 -19 -6 -6 12 -11 30 -8 4 0 7 -3 7 -9 0 -5 7 -10 16 -10 14 0 15 2
3 18 -13 15 -12 16 4 3 13 -10 14 -17 7 -27 -9 -9 -6 -13 12 -16 21 -4 21 -5
5 -13 -13 -5 -24 -1 -38 14 -18 20 -32 25 -52 22 -5 -1 -6 3 -3 8 4 5 -6 19
-20 30 -15 12 -20 21 -13 21 8 0 22 -7 31 -14z m162 -86 c9 0 16 -4 16 -10 0
-5 -8 -6 -17 -3 -15 6 -16 4 -6 -8 10 -13 10 -16 -2 -16 -8 0 -15 4 -15 9 0 4
-9 8 -20 8 -11 0 -20 5 -20 11 0 6 9 8 21 4 19 -6 20 -5 9 17 -10 21 -10 21 3
6 8 -10 22 -18 31 -18z m729 -28 c-4 -9 -8 -11 -10 -5 -3 7 -12 9 -21 6 -14
-6 -15 -5 -2 9 18 19 41 12 33 -10z m-633 -37 c30 -13 46 -24 35 -25 -11 0
-42 11 -70 25 -64 31 -37 32 35 0z m580 10 c-33 -19 -50 -18 -26 0 11 8 27 15
35 15 10 -1 7 -6 -9 -15z"/>
<path d="M1769 2019 c-10 -6 -7 -9 14 -9 29 0 35 5 14 13 -8 3 -20 1 -28 -4z"/>
<path d="M1394 1728 c8 -24 33 -98 56 -165 l43 -123 61 0 61 1 53 157 c29 86
52 161 52 165 0 4 -21 7 -47 5 l-47 -3 -36 -115 -36 -115 -38 118 -37 117 -49
0 -49 0 13 -42z"/>
<path d="M1826 1703 c-14 -38 -41 -112 -60 -165 l-35 -98 49 0 c45 0 50 3 56
25 3 14 11 25 18 26 83 7 101 3 114 -24 12 -24 19 -27 61 -27 l48 0 -22 63
c-12 34 -27 73 -32 87 -5 14 -22 60 -38 103 l-28 77 -52 0 -53 0 -26 -67z m96
-93 l15 -46 -33 0 c-19 0 -34 1 -34 1 0 7 33 95 35 93 1 -2 9 -23 17 -48z"/>
<path d="M1287 1723 c4 -9 9 -10 17 -3 9 6 17 6 25 -3 11 -10 13 -9 9 3 -3 8
-16 15 -30 15 -17 1 -24 -3 -21 -12z"/>
<path d="M1293 1253 c0 -27 2 -38 4 -25 2 12 8 22 13 22 4 0 11 -10 15 -22 7
-23 7 -23 18 5 12 31 32 37 22 7 -3 -11 -2 -20 3 -20 5 0 9 18 8 40 -1 49 -11
51 -27 5 l-13 -36 -18 36 c-10 19 -20 35 -22 35 -1 0 -3 -21 -3 -47z"/>
<path d="M1398 1293 c6 -2 12 -20 12 -39 0 -21 4 -33 10 -29 6 3 8 18 5 33 -2
15 1 30 8 34 7 5 0 7 -18 7 -16 0 -24 -3 -17 -6z"/>
<path d="M1458 1265 c-2 -19 0 -41 4 -48 4 -7 8 9 8 36 0 55 -6 62 -12 12z"/>
<path d="M1497 1286 c-17 -17 -13 -49 8 -66 11 -10 12 -6 2 19 -15 41 2 62 34
42 18 -10 20 -10 17 1 -7 19 -43 21 -61 4z"/>
<path d="M1584 1285 c-7 -18 3 -35 22 -35 15 0 19 -12 7 -23 -3 -4 -12 -2 -20
4 -8 7 -13 8 -13 1 0 -12 29 -24 41 -16 17 10 9 43 -11 49 -11 4 -18 11 -14
16 3 6 12 8 20 5 8 -3 14 -1 14 4 0 16 -40 12 -46 -5z"/>
<path d="M1781 1268 c-1 -35 9 -50 36 -54 7 -1 15 1 17 5 11 17 14 59 5 72 -6
10 -9 3 -9 -22 0 -43 -27 -63 -35 -26 -2 12 -6 31 -8 42 -3 11 -5 3 -6 -17z"/>
<path d="M1863 1293 c12 -3 17 -16 19 -41 l1 -37 4 35 c3 19 10 38 16 42 7 4
-4 7 -23 7 -19 -1 -27 -3 -17 -6z"/>
<path d="M1925 1267 c4 -45 3 -44 21 -51 25 -10 44 13 44 52 0 42 -9 38 -14
-7 -4 -38 -8 -42 -25 -32 -7 5 -13 21 -13 35 0 15 -4 28 -8 31 -4 2 -6 -10 -5
-28z"/>
<path d="M1684 1259 c-3 -5 6 -8 20 -7 26 2 26 10 1 14 -8 1 -17 -2 -21 -7z"/>
<path d="M1540 1230 c-8 -5 -12 -11 -9 -14 2 -3 11 -1 19 4 8 5 12 11 9 14 -2
3 -11 1 -19 -4z"/>
<path d="M1227 1129 c7 -7 15 -10 18 -7 3 3 -2 9 -12 12 -14 6 -15 5 -6 -5z"/>
<path d="M1337 1048 c2 -5 10 -8 18 -8 8 0 16 3 18 8 3 4 -5 7 -18 7 -13 0
-21 -3 -18 -7z"/>
<path d="M1418 983 c7 -3 16 -2 19 1 4 3 -2 6 -13 5 -11 0 -14 -3 -6 -6z"/>
<path d="M2200 2298 c0 -4 12 -8 27 -8 14 0 23 3 19 7 -10 10 -46 11 -46 1z"/>
<path d="M1146 2275 c-11 -8 -17 -17 -14 -20 2 -3 13 4 23 15 21 23 18 25 -9
5z"/>
<path d="M838 2238 c-7 -4 19 -8 60 -8 39 0 72 4 72 9 0 11 -115 10 -132 -1z"/>
<path d="M1082 2226 c-41 -29 -48 -36 -36 -36 5 0 25 13 44 30 42 35 38 38 -8
6z"/>
<path d="M2192 2216 c13 -10 15 -15 6 -24 -8 -8 -9 -12 -1 -12 17 0 25 32 11
42 -21 13 -34 8 -16 -6z"/>
<path d="M1015 2167 c-11 -8 -32 -13 -47 -12 -16 1 -28 -2 -28 -7 0 -4 9 -8
19 -8 15 0 18 -5 14 -22 -4 -22 -4 -21 9 2 8 14 20 24 26 23 6 -2 16 6 22 17
13 24 11 24 -15 7z"/>
<path d="M2320 2149 c0 -3 47 -6 105 -5 58 0 102 2 99 5 -7 8 -204 8 -204 0z"/>
<path d="M601 2079 c8 -5 8 -8 -1 -11 -6 -2 11 -4 39 -5 36 0 49 3 44 11 -5 8
-3 8 8 0 17 -13 159 -17 159 -4 0 5 -9 7 -20 5 -11 -2 -22 0 -24 4 -9 13 -86
12 -86 -2 0 -9 -2 -9 -8 0 -4 7 -30 11 -65 11 -32 -1 -52 -5 -46 -9z"/>
<path d="M2673 1977 c4 -13 26 -17 42 -8 6 3 16 6 23 7 33 5 20 12 -23 12 -31
0 -45 -4 -42 -11z"/>
<path d="M2635 1960 c-3 -5 -1 -10 4 -10 6 0 11 5 11 10 0 6 -2 10 -4 10 -3 0
-8 -4 -11 -10z"/>
<path d="M2367 1933 c-10 -9 -9 -23 1 -23 5 0 9 7 9 15 0 17 -1 18 -10 8z"/>
<path d="M831 1916 c-10 -12 -8 -13 8 -9 12 3 18 9 15 14 -7 12 -10 11 -23 -5z"/>
<path d="M790 1897 c0 -7 9 -18 20 -25 16 -10 20 -10 18 0 -3 14 -23 38 -32
38 -3 0 -6 -6 -6 -13z"/>
<path d="M2536 1358 c3 -5 10 -6 15 -3 13 9 11 12 -6 12 -8 0 -12 -4 -9 -9z"/>
<path d="M362 1179 c2 -6 7 -10 11 -10 4 1 21 1 37 1 17 0 30 5 30 10 0 6 -18
10 -41 10 -25 0 -39 -4 -37 -11z"/>
<path d="M2370 1180 c0 -5 5 -10 10 -10 6 0 10 5 10 10 0 6 -4 10 -10 10 -5 0
-10 -4 -10 -10z"/>
<path d="M2377 1136 c-4 -10 -1 -13 8 -9 8 3 12 9 9 14 -7 12 -11 11 -17 -5z"/>
<path d="M648 1133 c7 -3 16 -2 19 1 4 3 -2 6 -13 5 -11 0 -14 -3 -6 -6z"/>
<path d="M2390 1089 c0 -5 9 -9 20 -9 11 0 20 2 20 4 0 2 -9 6 -20 9 -11 3
-20 1 -20 -4z"/>
<path d="M894 987 c-8 -9 -2 -15 25 -24 19 -7 37 -10 39 -8 9 8 -10 25 -29 25
-11 0 -17 5 -14 10 9 14 -8 12 -21 -3z"/>
<path d="M961 985 c1 -22 16 -48 22 -38 3 5 0 19 -8 29 -8 10 -14 15 -14 9z"/>
<path d="M2177 972 c13 -12 21 -14 29 -7 14 12 16 11 -19 19 -26 6 -27 6 -10
-12z"/>
<path d="M2230 976 c0 -9 7 -12 20 -9 11 3 17 9 14 14 -8 14 -34 10 -34 -5z"/>
<path d="M560 967 c0 -5 10 -7 23 -6 12 2 27 0 33 -4 7 -4 14 -1 17 6 3 9 -7
12 -34 12 -22 0 -39 -3 -39 -8z"/>
<path d="M990 935 c-7 -9 -10 -18 -7 -21 3 -3 10 4 17 15 13 25 8 27 -10 6z"/>
<path d="M1097 847 c-3 -8 1 -14 8 -14 7 0 11 6 8 14 -3 7 -6 13 -8 13 -2 0
-5 -6 -8 -13z"/>
<path d="M1137 843 c-4 -3 -7 -11 -7 -17 0 -6 5 -5 12 2 6 6 9 14 7 17 -3 3
-9 2 -12 -2z"/>
<path d="M2095 819 c-3 -4 2 -6 10 -5 21 3 28 13 10 13 -9 0 -18 -4 -20 -8z"/>
<path d="M1150 816 c0 -3 9 -10 20 -16 11 -6 20 -8 20 -6 0 3 -9 10 -20 16
-11 6 -20 8 -20 6z"/>
<path d="M2139 720 c-6 -4 1 -7 15 -7 14 0 26 3 26 7 0 3 -7 7 -15 7 -8 0 -19
-4 -26 -7z"/>
<path d="M2195 720 c-2 -3 10 -7 26 -8 16 -1 29 1 29 6 0 9 -49 11 -55 2z"/>
<path d="M2260 718 c0 -4 7 -8 15 -8 8 0 15 4 15 8 0 5 -7 9 -15 9 -8 0 -15
-4 -15 -9z"/>
<path d="M2480 720 c-12 -8 -10 -10 8 -10 13 0 20 4 17 10 -7 12 -6 12 -25 0z"/>
</g>
</svg>
